<svg xmlns="http://www.w3.org/2000/svg" viewBox="0 0 300 60" fill="none">
  <!-- Logo mark -->
  <g transform="translate(10, 8)">
    <rect x="0" y="0" width="44" height="44" rx="10" fill="#1E4D6B"/>
    <g transform="translate(22, 28)">
      <path d="M-12 12 L-12 -8 L0 -15 L12 -8 L12 12 Z" fill="#F5F0EB"/>
      <path d="M-12 -8 L0 -15 L12 -8" fill="#E8DDD4"/>
      <rect x="-9" y="-4" width="4" height="5" rx="0.5" fill="#1E4D6B"/>
      <rect x="-2" y="-4" width="4" height="5" rx="0.5" fill="#1E4D6B"/>
      <rect x="5" y="-4" width="4" height="5" rx="0.5" fill="#1E4D6B"/>
      <rect x="-9" y="4" width="4" height="5" rx="0.5" fill="#1E4D6B"/>
      <rect x="-2" y="4" width="4" height="5" rx="0.5" fill="#1E4D6B"/>
      <rect x="5" y="4" width="4" height="5" rx="0.5" fill="#1E4D6B"/>
    </g>
    <line x1="36" y1="36" x2="42" y2="32" stroke="#C75B39" stroke-width="2" stroke-linecap="round"/>
    <line x1="36" y1="36" x2="30" y2="30" stroke="#4A90A4" stroke-width="2" stroke-linecap="round"/>
  </g>
  
  <!-- Wordmark: LISBON -->
  <text x="70" y="36" font-family="Space Grotesk, sans-serif" font-size="28" font-weight="600" fill="#1C1917">LISBON</text>
  
  <!-- Wordmark: 3D -->
  <text x="178" y="36" font-family="Space Grotesk, sans-serif" font-size="28" font-weight="700" fill="#C75B39">3D</text>
  
  <!-- Subtitle -->
  <text x="70" y="50" font-family="Inter, sans-serif" font-size="11" font-weight="400" fill="#78716C" letter-spacing="0.05em">EXPLORER</text>
</svg>